<svg xmlns="http://www.w3.org/2000/svg" width="66" height="50" viewBox="0 0 66 50">
    <g fill="#FFF" fill-rule="nonzero" opacity=".2">
        <path d="M62.813 17H52.187C50.428 17 49 18.477 49 20.3v26.4c0 1.823 1.427 3.3 3.188 3.3h10.624C64.573 50 66 48.523 66 46.7V20.3c0-1.823-1.427-3.3-3.188-3.3zm-4.25 28.6h-2.126c-.586 0-1.062-.492-1.062-1.1 0-.608.476-1.1 1.063-1.1h2.124c.587 0 1.063.492 1.063 1.1 0 .608-.476 1.1-1.063 1.1z"/>
        <path d="M26.667 41.304V14.13c0-3.001 2.487-5.434 5.555-5.434h24.445c1.202 0 2.371.381 3.333 1.087V3.26c0-.865-.351-1.694-.976-2.306A3.371 3.371 0 0 0 56.667 0H3.333C1.493 0 0 1.46 0 3.26v34.783c0 1.801 1.492 3.261 3.333 3.261h18.578l-1.667 6.522h-3.577a1.1 1.1 0 0 0-1.111 1.087A1.1 1.1 0 0 0 16.666 50h31.112a5.357 5.357 0 0 1-1.111-3.26V20.651c0-1.441.585-2.824 1.627-3.843a5.619 5.619 0 0 1 3.928-1.592H60V14.13c0-.864-.351-1.694-.976-2.305a3.371 3.371 0 0 0-2.357-.955H32.222c-1.84 0-3.333 1.46-3.333 3.26v32.61c.008.37.076.736.2 1.086h-6.556l1.667-6.522h2.467zm12.222 2.174h4.444a1.1 1.1 0 0 1 1.111 1.087 1.1 1.1 0 0 1-1.11 1.087h-4.445a1.1 1.1 0 0 1-1.111-1.087 1.1 1.1 0 0 1 1.11-1.087z"/>
    </g>
</svg>
